<svg width="14" height="8" viewBox="0 0 14 8" fill="none" xmlns="http://www.w3.org/2000/svg">
<path d="M0.292786 0.292708C0.480314 0.105237 0.734622 -7.86781e-05 0.999786 -7.86781e-05C1.26495 -7.86781e-05 1.51926 0.105237 1.70679 0.292708L6.65679 5.24271L11.6068 0.292708C11.7954 0.11055 12.048 0.00975561 12.3102 0.0120339C12.5724 0.0143123 12.8232 0.119481 13.0086 0.304889C13.194 0.490297 13.2992 0.74111 13.3015 1.00331C13.3037 1.2655 13.2029 1.51811 13.0208 1.70671L7.36379 7.36371C7.17626 7.55118 6.92195 7.65649 6.65679 7.65649C6.39162 7.65649 6.13731 7.55118 5.94979 7.36371L0.292786 1.70671C0.105315 1.51918 0 1.26487 0 0.999708C0 0.734543 0.105315 0.480236 0.292786 0.292708Z" fill="white"/>
</svg>
