<svg width="115" height="105" viewBox="0 0 115 105" fill="none" xmlns="http://www.w3.org/2000/svg">
<path d="M34.6156 8.60692C33.3104 7.30203 31.5518 6.55141 29.7066 6.51163C27.8615 6.47184 26.0722 7.14596 24.7119 8.39337L8.83432 22.9481C8.12152 23.6011 7.54832 24.3918 7.14928 25.2723C6.75023 26.1528 6.53359 27.1051 6.51242 28.0716C6.49125 29.0381 6.66599 29.9989 7.0261 30.896C7.38621 31.7932 7.92424 32.6082 8.60776 33.2918L23.9984 48.6824C24.6637 49.3482 25.4538 49.8762 26.3233 50.2363C27.1929 50.5965 28.1249 50.7817 29.0661 50.7814H37.5947C39.2012 50.7808 40.7885 51.1299 42.2464 51.8044C43.7044 52.479 44.998 53.4628 46.0374 54.6877L79.9593 94.6929C81.9129 96.6464 84.5625 97.7439 87.3252 97.7439C90.088 97.7439 92.7375 96.6464 94.6911 94.6929C96.6447 92.7393 97.7422 90.0897 97.7422 87.327C97.7422 84.5642 96.6447 81.9147 94.6911 79.9611L54.7015 46.0496C53.4762 45.0104 52.4919 43.7169 51.8169 42.2589C51.1419 40.801 50.7924 39.2136 50.7927 37.6069V27.7501C50.7919 25.8511 50.0369 24.0301 48.6937 22.6876L34.6156 8.60692ZM20.3135 3.59389C22.9107 1.21317 26.3268 -0.0729805 29.8492 0.00367872C33.3717 0.080338 36.7285 1.51389 39.2197 4.00535L53.2979 18.0835C55.8619 20.6471 57.3026 24.1243 57.3031 27.7501V37.6069C57.3031 38.5262 57.5791 39.4116 58.0817 40.1564L60.8343 37.6486C61.8291 36.7449 62.4776 35.2684 62.6364 33.422C63.0583 28.5132 64.6546 23.2918 66.7822 18.6642C68.8994 14.0496 71.6546 9.78139 74.5713 6.86473C78.9667 2.46932 84.9282 0 91.1442 0C97.3603 0 103.322 2.46932 107.717 6.86473C112.113 11.2601 114.582 17.2216 114.582 23.4376C114.582 29.6537 112.113 35.6152 107.717 40.0106C104.8 42.9272 100.532 45.6824 95.9203 47.7996C91.2901 49.9272 86.0713 51.5236 81.1625 51.9455C79.3187 52.1017 77.8395 52.7528 76.9359 53.7475L75.5895 55.2267L99.113 75.1746L99.2067 75.2684C102.381 78.4427 104.165 82.7481 104.165 87.2375C104.166 91.7269 102.382 96.0325 99.208 99.2072C96.0337 102.382 91.7283 104.165 87.2389 104.166C82.7495 104.166 78.4439 102.383 75.2692 99.2085L75.1729 99.1147L56.1104 76.633L34.975 99.8621L34.8708 99.9715C33.5395 101.321 31.9537 102.392 30.2053 103.124C28.4568 103.856 26.5805 104.233 24.6851 104.235C22.7897 104.236 20.9128 103.861 19.1634 103.132C17.4139 102.402 15.8266 101.333 14.4935 99.9855C13.1604 98.6381 12.108 97.0395 11.3973 95.2823C10.6866 93.5252 10.3318 91.6445 10.3533 89.7492C10.3748 87.8539 10.7723 85.9817 11.5227 84.2411C12.2732 82.5006 13.3616 80.9263 14.7249 79.6095L39.0062 57.5158C38.5499 57.3694 38.0739 57.2939 37.5947 57.2918H29.0661C27.2703 57.292 25.4921 56.9383 23.833 56.2511C22.174 55.5639 20.6665 54.5565 19.3968 53.2866L4.0062 37.896C2.70091 36.5912 1.67332 35.0356 0.985355 33.323C0.297388 31.6104 -0.0367097 29.7763 0.00319656 27.9311C0.0431028 26.0859 0.456187 24.2679 1.21755 22.5867C1.97892 20.9054 3.0728 19.3957 4.43328 18.1486L20.3135 3.59389ZM70.6208 51.0132L72.1208 49.3647C74.4463 46.8074 77.6677 45.7111 80.6052 45.4585C84.5869 45.1173 89.0687 43.7814 93.2015 41.8856C97.3474 39.9793 100.899 37.6199 103.113 35.4064C106.239 32.2221 107.982 27.9322 107.961 23.4699C107.941 19.0075 106.159 14.7338 103.003 11.5784C99.8481 8.42299 95.5744 6.64124 91.112 6.62073C86.6497 6.60023 82.3597 8.34264 79.1755 11.4689C76.9619 13.6824 74.6026 17.2345 72.6989 21.383C70.7979 25.5158 69.4645 29.9975 69.1234 33.9793C68.8708 36.9168 67.7744 40.1382 65.2171 42.4637L62.9619 44.5184L70.6208 51.0132ZM43.7197 62.0262L19.1677 84.3699C17.7445 85.8434 16.9571 87.8169 16.9749 89.8653C16.9927 91.9137 17.8143 93.8732 19.2628 95.3216C20.7113 96.7701 22.6708 97.5918 24.7192 97.6096C26.7676 97.6274 28.7411 96.8399 30.2145 95.4168L51.863 71.6278L43.7197 62.0262ZM82.0322 25.3908C82.0322 24.5274 81.6893 23.6995 81.0788 23.089C80.4683 22.4785 79.6404 22.1356 78.777 22.1356C77.9137 22.1356 77.0857 22.4785 76.4753 23.089C75.8648 23.6995 75.5218 24.5274 75.5218 25.3908C75.5218 32.9429 81.6416 39.0626 89.1937 39.0626C90.057 39.0626 90.885 38.7197 91.4955 38.1092C92.106 37.4988 92.4489 36.6708 92.4489 35.8074C92.4489 34.9441 92.106 34.1161 91.4955 33.5057C90.885 32.8952 90.057 32.5522 89.1937 32.5522C87.2944 32.5522 85.4728 31.7977 84.1298 30.4547C82.7868 29.1117 82.0322 27.2901 82.0322 25.3908ZM16.5791 26.9949C16.8814 26.6926 17.2403 26.4527 17.6353 26.2891C18.0303 26.1254 18.4536 26.0412 18.8812 26.0412C19.3088 26.0412 19.7321 26.1254 20.1271 26.2891C20.5221 26.4527 20.881 26.6926 21.1833 26.9949L31.5999 37.4116C32.2105 38.0222 32.5535 38.8502 32.5535 39.7137C32.5535 40.5771 32.2105 41.4052 31.5999 42.0158C30.9894 42.6263 30.1613 42.9693 29.2979 42.9693C28.4344 42.9693 27.6063 42.6263 26.9958 42.0158L16.5791 31.5991C16.2768 31.2968 16.0369 30.9379 15.8733 30.5429C15.7096 30.1479 15.6254 29.7246 15.6254 29.297C15.6254 28.8695 15.7096 28.4461 15.8733 28.0511C16.0369 27.6561 16.2768 27.2972 16.5791 26.9949ZM31.5999 16.5783C30.9894 15.9677 30.1613 15.6247 29.2979 15.6247C28.4344 15.6247 27.6063 15.9677 26.9958 16.5783C26.3852 17.1888 26.0422 18.0169 26.0422 18.8804C26.0422 19.7438 26.3852 20.5719 26.9958 21.1824L37.4124 31.5991C38.023 32.2097 38.8511 32.5527 39.7145 32.5527C40.578 32.5527 41.4061 32.2097 42.0166 31.5991C42.6272 30.9886 42.9702 30.1605 42.9702 29.297C42.9702 28.4336 42.6272 27.6055 42.0166 26.9949L31.5999 16.5783Z" fill="url(#paint0_linear_320_1265)" fill-opacity="0.24"/>
<defs>
<linearGradient id="paint0_linear_320_1265" x1="57.2909" y1="0" x2="57.2909" y2="104.235" gradientUnits="userSpaceOnUse">
<stop stop-color="white"/>
<stop offset="1" stop-color="#A28484"/>
</linearGradient>
</defs>
</svg>
